<svg width="260" height="56" viewBox="0 0 260 56" fill="none" xmlns="http://www.w3.org/2000/svg">
<path d="M3.32 38V10H15.4C17.5067 10 19.4267 10.3467 21.16 11.04C22.8933 11.7333 24.4 12.7067 25.68 13.96C26.96 15.1867 27.9467 16.6533 28.64 18.36C29.3333 20.0667 29.68 21.9467 29.68 24C29.68 26.0267 29.3333 27.9067 28.64 29.64C27.9467 31.3467 26.96 32.8267 25.68 34.08C24.4 35.3067 22.8933 36.2667 21.16 36.96C19.4267 37.6533 17.5067 38 15.4 38H3.32ZM11.24 32.96L10 31.16H15.2C16.1867 31.16 17.0667 30.9867 17.84 30.64C18.64 30.2933 19.32 29.8133 19.88 29.2C20.44 28.56 20.88 27.8 21.2 26.92C21.52 26.04 21.68 25.0667 21.68 24C21.68 22.9333 21.52 21.96 21.2 21.08C20.88 20.2 20.4267 19.4533 19.84 18.84C19.28 18.2 18.6133 17.7067 17.84 17.36C17.0667 17.0133 16.1867 16.84 15.2 16.84H9.88L11.24 15.12V32.96ZM34.3681 38V16.68H41.8081V38H34.3681ZM38.0881 12.64C36.7281 12.64 35.6748 12.3333 34.9281 11.72C34.1815 11.08 33.8081 10.1867 33.8081 9.04C33.8081 7.97333 34.1815 7.10666 34.9281 6.44C35.7015 5.74666 36.7548 5.4 38.0881 5.4C39.4215 5.4 40.4615 5.72 41.2081 6.36C41.9815 6.97333 42.3681 7.86667 42.3681 9.04C42.3681 10.1067 41.9815 10.9733 41.2081 11.64C40.4348 12.3067 39.3948 12.64 38.0881 12.64ZM55.3638 38.36C53.6038 38.36 52.0171 37.8933 50.6038 36.96C49.2171 36 48.1104 34.6933 47.2838 33.04C46.4838 31.36 46.0838 29.4533 46.0838 27.32C46.0838 25.1333 46.4838 23.2133 47.2838 21.56C48.0838 19.9067 49.1904 18.6133 50.6038 17.68C52.0171 16.72 53.6438 16.24 55.4838 16.24C56.4704 16.24 57.3771 16.3733 58.2038 16.64C59.0304 16.9067 59.7504 17.2933 60.3638 17.8C60.9771 18.3067 61.5104 18.88 61.9638 19.52C62.4171 20.16 62.7904 20.8533 63.0838 21.6L61.5638 21.52V16.68H68.8838V38H61.4038V32.8L63.0438 32.88C62.8038 33.6533 62.4438 34.3733 61.9638 35.04C61.5104 35.7067 60.9504 36.2933 60.2838 36.8C59.6171 37.28 58.8704 37.6667 58.0438 37.96C57.2438 38.2267 56.3504 38.36 55.3638 38.36ZM57.4838 32.24C58.3371 32.24 59.0704 32.0533 59.6838 31.68C60.2971 31.28 60.7638 30.7067 61.0838 29.96C61.4304 29.2133 61.6038 28.3333 61.6038 27.32C61.6038 26.28 61.4304 25.3867 61.0838 24.64C60.7638 23.8933 60.2971 23.3333 59.6838 22.96C59.0704 22.56 58.3371 22.36 57.4838 22.36C56.6304 22.36 55.8971 22.56 55.2838 22.96C54.6971 23.3333 54.2438 23.8933 53.9238 24.64C53.6038 25.3867 53.4438 26.28 53.4438 27.32C53.4438 28.3333 53.6038 29.2133 53.9238 29.96C54.2438 30.7067 54.6971 31.28 55.2838 31.68C55.8971 32.0533 56.6304 32.24 57.4838 32.24ZM74.4797 38V16.68H81.4397L81.7197 20.2L80.7997 20.04C81.173 19.3467 81.613 18.76 82.1197 18.28C82.6264 17.8 83.1864 17.4133 83.7997 17.12C84.413 16.8 85.0397 16.5733 85.6797 16.44C86.3197 16.3067 86.933 16.24 87.5197 16.24C88.5064 16.24 89.413 16.3867 90.2397 16.68C91.093 16.9467 91.8397 17.4133 92.4797 18.08C93.1464 18.7467 93.693 19.68 94.1197 20.88L92.9597 20.8L93.2797 20.24C93.6797 19.5467 94.1464 18.96 94.6797 18.48C95.2397 18 95.853 17.5867 96.5197 17.24C97.1864 16.8933 97.8664 16.64 98.5597 16.48C99.2797 16.32 99.9597 16.24 100.6 16.24C102.333 16.24 103.786 16.5733 104.96 17.24C106.133 17.9067 107.013 18.8933 107.6 20.2C108.186 21.48 108.48 23.0533 108.48 24.92V38H101.04V25.52C101.04 24.8267 100.933 24.2533 100.72 23.8C100.506 23.32 100.2 22.96 99.7997 22.72C99.3997 22.48 98.9064 22.36 98.3197 22.36C97.8664 22.36 97.4397 22.44 97.0397 22.6C96.6664 22.7333 96.3464 22.9467 96.0797 23.24C95.813 23.5067 95.5997 23.8133 95.4397 24.16C95.2797 24.48 95.1997 24.8667 95.1997 25.32V38H87.7597V25.48C87.7597 24.8133 87.653 24.2533 87.4397 23.8C87.2264 23.3467 86.9197 23 86.5197 22.76C86.1197 22.4933 85.6264 22.36 85.0397 22.36C84.5864 22.36 84.1597 22.44 83.7597 22.6C83.3864 22.7333 83.0664 22.9333 82.7997 23.2C82.533 23.4667 82.3197 23.7733 82.1597 24.12C81.9997 24.4667 81.9197 24.8533 81.9197 25.28V38H74.4797ZM124.018 38.4C121.751 38.4 119.724 37.92 117.938 36.96C116.151 36 114.751 34.6933 113.738 33.04C112.724 31.3867 112.218 29.48 112.218 27.32C112.218 25.16 112.724 23.2533 113.738 21.6C114.751 19.9467 116.151 18.64 117.938 17.68C119.724 16.72 121.751 16.24 124.018 16.24C126.284 16.24 128.298 16.72 130.058 17.68C131.844 18.64 133.244 19.9467 134.258 21.6C135.271 23.2533 135.778 25.16 135.778 27.32C135.778 29.48 135.271 31.3867 134.258 33.04C133.244 34.6933 131.844 36 130.058 36.96C128.298 37.92 126.284 38.4 124.018 38.4ZM124.018 32.12C124.818 32.12 125.538 31.92 126.178 31.52C126.844 31.0933 127.351 30.52 127.698 29.8C128.071 29.0533 128.258 28.2267 128.258 27.32C128.258 26.36 128.071 25.52 127.698 24.8C127.351 24.08 126.844 23.52 126.178 23.12C125.538 22.6933 124.818 22.48 124.018 22.48C123.191 22.48 122.458 22.6933 121.818 23.12C121.178 23.52 120.671 24.0933 120.298 24.84C119.924 25.56 119.738 26.3867 119.738 27.32C119.738 28.2267 119.924 29.0533 120.298 29.8C120.671 30.52 121.178 31.0933 121.818 31.52C122.458 31.92 123.191 32.12 124.018 32.12ZM139.831 38V16.68H146.791L147.111 21L145.591 21.48C145.858 20.4667 146.378 19.5733 147.151 18.8C147.925 18 148.845 17.3733 149.911 16.92C150.978 16.4667 152.098 16.24 153.271 16.24C154.871 16.24 156.218 16.5733 157.311 17.24C158.431 17.88 159.271 18.8533 159.831 20.16C160.418 21.44 160.711 23.0133 160.711 24.88V38H153.271V25.48C153.271 24.7867 153.165 24.2133 152.951 23.76C152.738 23.28 152.418 22.92 151.991 22.68C151.565 22.44 151.058 22.3333 150.471 22.36C150.018 22.36 149.591 22.4267 149.191 22.56C148.818 22.6933 148.485 22.9067 148.191 23.2C147.898 23.4667 147.671 23.7733 147.511 24.12C147.378 24.4667 147.311 24.8533 147.311 25.28V38H143.591C142.685 38 141.911 38 141.271 38C140.658 38 140.178 38 139.831 38ZM173.724 38.44C171.937 38.44 170.337 37.9733 168.924 37.04C167.537 36.08 166.444 34.7733 165.644 33.12C164.844 31.44 164.444 29.52 164.444 27.36C164.444 25.2 164.844 23.2933 165.644 21.64C166.471 19.96 167.591 18.64 169.004 17.68C170.417 16.72 172.031 16.24 173.844 16.24C174.777 16.24 175.671 16.3733 176.524 16.64C177.377 16.9067 178.137 17.28 178.804 17.76C179.497 18.24 180.071 18.8 180.524 19.44C181.004 20.08 181.311 20.76 181.444 21.48L179.724 21.96V8.4H187.204V38H180.444L179.924 33.24L181.404 33.52C181.297 34.2133 181.017 34.8533 180.564 35.44C180.111 36.0267 179.537 36.5467 178.844 37C178.177 37.4533 177.391 37.8 176.484 38.04C175.604 38.3067 174.684 38.44 173.724 38.44ZM175.844 32.36C176.697 32.36 177.431 32.16 178.044 31.76C178.657 31.3333 179.124 30.76 179.444 30.04C179.764 29.2933 179.924 28.4 179.924 27.36C179.924 26.32 179.764 25.4267 179.444 24.68C179.124 23.9067 178.657 23.3333 178.044 22.96C177.431 22.56 176.697 22.36 175.844 22.36C174.991 22.36 174.257 22.56 173.644 22.96C173.031 23.3333 172.564 23.9067 172.244 24.68C171.924 25.4267 171.764 26.32 171.764 27.36C171.764 28.4 171.924 29.2933 172.244 30.04C172.564 30.76 173.031 31.3333 173.644 31.76C174.257 32.16 174.991 32.36 175.844 32.36ZM204.968 38.4C203.021 38.4 201.234 38.0533 199.608 37.36C197.981 36.6667 196.568 35.68 195.368 34.4C194.168 33.0933 193.234 31.56 192.568 29.8C191.928 28.04 191.608 26.1067 191.608 24C191.608 22 191.954 20.1467 192.648 18.44C193.368 16.7067 194.354 15.1867 195.608 13.88C196.861 12.5733 198.314 11.56 199.967 10.84C201.621 10.12 203.408 9.76 205.328 9.76C206.688 9.76 208.008 9.97333 209.288 10.4C210.594 10.8 211.768 11.3733 212.808 12.12C213.874 12.84 214.741 13.6667 215.408 14.6L212.528 17.6C211.754 16.8267 210.968 16.1867 210.168 15.68C209.394 15.1467 208.594 14.7467 207.768 14.48C206.968 14.2133 206.154 14.08 205.328 14.08C204.021 14.08 202.794 14.3333 201.648 14.84C200.528 15.32 199.541 16 198.688 16.88C197.861 17.76 197.208 18.8133 196.728 20.04C196.248 21.24 196.008 22.56 196.008 24C196.008 25.52 196.234 26.9067 196.688 28.16C197.168 29.3867 197.834 30.44 198.688 31.32C199.541 32.2 200.554 32.88 201.728 33.36C202.928 33.8133 204.248 34.04 205.688 34.04C206.568 34.04 207.434 33.92 208.288 33.68C209.141 33.44 209.941 33.0933 210.688 32.64C211.434 32.1867 212.114 31.6533 212.728 31.04L214.888 34.56C214.274 35.28 213.434 35.9333 212.368 36.52C211.328 37.1067 210.154 37.5733 208.848 37.92C207.568 38.24 206.274 38.4 204.968 38.4ZM227.076 38.4C225.583 38.4 224.276 38.0533 223.156 37.36C222.063 36.6667 221.209 35.6933 220.596 34.44C220.009 33.1867 219.716 31.6933 219.716 29.96V17H223.836V28.84C223.836 30.0667 224.023 31.1333 224.396 32.04C224.796 32.92 225.356 33.6 226.076 34.08C226.823 34.56 227.716 34.8 228.756 34.8C229.529 34.8 230.236 34.68 230.876 34.44C231.516 34.1733 232.063 33.8133 232.516 33.36C232.996 32.9067 233.369 32.36 233.636 31.72C233.903 31.08 234.036 30.3867 234.036 29.64V17H238.156V38H234.036V33.6L234.756 33.12C234.436 34.1067 233.889 35 233.116 35.8C232.369 36.6 231.476 37.24 230.436 37.72C229.396 38.1733 228.276 38.4 227.076 38.4ZM246.535 38V11.64H250.655V38H246.535ZM242.175 21V17H255.535V21H242.175Z" fill="#141715"/>
<path d="M3.648 53V41.8H4.864L9.168 48.792L8.592 48.776L12.944 41.8H14.08V53H12.832V47.88C12.832 46.92 12.848 46.056 12.88 45.288C12.912 44.52 12.9707 43.7573 13.056 43L13.28 43.448L9.264 49.752H8.4L4.496 43.528L4.672 43C4.75733 43.7147 4.816 44.4507 4.848 45.208C4.88 45.9547 4.896 46.8453 4.896 47.88V53H3.648ZM29.0464 53.16C28.257 53.16 27.5264 53.0213 26.8544 52.744C26.193 52.456 25.6117 52.056 25.1104 51.544C24.6197 51.032 24.2357 50.4293 23.9584 49.736C23.6917 49.032 23.5584 48.264 23.5584 47.432C23.5584 46.6 23.6917 45.8373 23.9584 45.144C24.2357 44.44 24.6197 43.832 25.1104 43.32C25.6117 42.7973 26.193 42.3973 26.8544 42.12C27.5264 41.832 28.257 41.688 29.0464 41.688C29.8464 41.688 30.577 41.832 31.2384 42.12C31.9104 42.3973 32.4917 42.7973 32.9824 43.32C33.4837 43.832 33.8677 44.44 34.1344 45.144C34.4117 45.8373 34.5504 46.6 34.5504 47.432C34.5504 48.2533 34.4117 49.016 34.1344 49.72C33.8677 50.4133 33.4837 51.0213 32.9824 51.544C32.4917 52.056 31.9104 52.456 31.2384 52.744C30.577 53.0213 29.8464 53.16 29.0464 53.16ZM29.0464 51.928C29.6544 51.928 30.2144 51.8213 30.7264 51.608C31.249 51.384 31.697 51.0693 32.0704 50.664C32.4437 50.2587 32.7317 49.784 32.9344 49.24C33.1477 48.6853 33.2544 48.0827 33.2544 47.432C33.2544 46.7707 33.1477 46.168 32.9344 45.624C32.7317 45.0693 32.4437 44.5893 32.0704 44.184C31.697 43.7787 31.249 43.464 30.7264 43.24C30.2144 43.016 29.6544 42.904 29.0464 42.904C28.4384 42.904 27.873 43.016 27.3504 43.24C26.8384 43.464 26.3957 43.7787 26.0224 44.184C25.649 44.5893 25.361 45.0693 25.1584 45.624C24.9557 46.168 24.8544 46.7707 24.8544 47.432C24.8544 48.0827 24.9557 48.6853 25.1584 49.24C25.361 49.784 25.649 50.2587 26.0224 50.664C26.3957 51.0693 26.8384 51.384 27.3504 51.608C27.873 51.8213 28.4384 51.928 29.0464 51.928ZM45.5725 53V43.016H42.3725V41.8H50.1485V43.016H46.8205V53H45.5725ZM63.4389 53.16C62.6495 53.16 61.9189 53.0213 61.2469 52.744C60.5855 52.456 60.0042 52.056 59.5029 51.544C59.0122 51.032 58.6282 50.4293 58.3509 49.736C58.0842 49.032 57.9509 48.264 57.9509 47.432C57.9509 46.6 58.0842 45.8373 58.3509 45.144C58.6282 44.44 59.0122 43.832 59.5029 43.32C60.0042 42.7973 60.5855 42.3973 61.2469 42.12C61.9189 41.832 62.6495 41.688 63.4389 41.688C64.2389 41.688 64.9695 41.832 65.6309 42.12C66.3029 42.3973 66.8842 42.7973 67.3749 43.32C67.8762 43.832 68.2602 44.44 68.5269 45.144C68.8042 45.8373 68.9429 46.6 68.9429 47.432C68.9429 48.2533 68.8042 49.016 68.5269 49.72C68.2602 50.4133 67.8762 51.0213 67.3749 51.544C66.8842 52.056 66.3029 52.456 65.6309 52.744C64.9695 53.0213 64.2389 53.16 63.4389 53.16ZM63.4389 51.928C64.0469 51.928 64.6069 51.8213 65.1189 51.608C65.6415 51.384 66.0895 51.0693 66.4629 50.664C66.8362 50.2587 67.1242 49.784 67.3269 49.24C67.5402 48.6853 67.6469 48.0827 67.6469 47.432C67.6469 46.7707 67.5402 46.168 67.3269 45.624C67.1242 45.0693 66.8362 44.5893 66.4629 44.184C66.0895 43.7787 65.6415 43.464 65.1189 43.24C64.6069 43.016 64.0469 42.904 63.4389 42.904C62.8309 42.904 62.2655 43.016 61.7429 43.24C61.2309 43.464 60.7882 43.7787 60.4149 44.184C60.0415 44.5893 59.7535 45.0693 59.5509 45.624C59.3482 46.168 59.2469 46.7707 59.2469 47.432C59.2469 48.0827 59.3482 48.6853 59.5509 49.24C59.7535 49.784 60.0415 50.2587 60.4149 50.664C60.7882 51.0693 61.2309 51.384 61.7429 51.608C62.2655 51.8213 62.8309 51.928 63.4389 51.928ZM78.4174 53V41.8H82.8014C83.452 41.8 84.0387 41.9547 84.5614 42.264C85.0947 42.5627 85.516 42.9733 85.8254 43.496C86.1347 44.0187 86.2894 44.6107 86.2894 45.272C86.2894 45.8907 86.14 46.4507 85.8414 46.952C85.5427 47.4533 85.1374 47.8533 84.6254 48.152C84.1134 48.44 83.5374 48.584 82.8974 48.584H79.6654V53H78.4174ZM85.2494 53L82.4334 48.072L83.6334 47.656L86.7374 53H85.2494ZM79.6654 47.368H83.0094C83.404 47.368 83.7507 47.2773 84.0494 47.096C84.348 46.9147 84.5827 46.6693 84.7534 46.36C84.924 46.04 85.0094 45.6773 85.0094 45.272C85.0094 44.8347 84.908 44.4453 84.7054 44.104C84.5027 43.7627 84.22 43.496 83.8574 43.304C83.5054 43.112 83.1 43.016 82.6414 43.016H79.6654V47.368ZM99.2839 53.16C98.7185 53.16 98.1852 53.08 97.6839 52.92C97.1825 52.76 96.7239 52.52 96.3079 52.2C95.8919 51.88 95.5239 51.4853 95.2039 51.016L96.0679 50.056C96.5692 50.7707 97.0812 51.272 97.6039 51.56C98.1372 51.848 98.7345 51.992 99.3959 51.992C99.8759 51.992 100.313 51.912 100.708 51.752C101.103 51.592 101.412 51.368 101.636 51.08C101.86 50.792 101.972 50.4613 101.972 50.088C101.972 49.8427 101.929 49.624 101.844 49.432C101.769 49.24 101.652 49.0693 101.492 48.92C101.332 48.7707 101.135 48.6373 100.9 48.52C100.665 48.4027 100.393 48.296 100.084 48.2C99.7852 48.104 99.4492 48.008 99.0759 47.912C98.5319 47.784 98.0519 47.6347 97.6359 47.464C97.2305 47.2827 96.8839 47.064 96.5959 46.808C96.3185 46.552 96.1052 46.2587 95.9559 45.928C95.8172 45.5867 95.7479 45.1867 95.7479 44.728C95.7479 44.2907 95.8385 43.8853 96.0199 43.512C96.2119 43.1387 96.4732 42.8187 96.8039 42.552C97.1345 42.2747 97.5239 42.0613 97.9719 41.912C98.4199 41.7627 98.8999 41.688 99.4119 41.688C99.9879 41.688 100.5 41.768 100.948 41.928C101.407 42.0773 101.812 42.3013 102.164 42.6C102.516 42.8987 102.82 43.256 103.076 43.672L102.196 44.536C101.972 44.184 101.716 43.88 101.428 43.624C101.151 43.368 100.841 43.176 100.5 43.048C100.169 42.9093 99.8012 42.84 99.3959 42.84C98.9265 42.84 98.5105 42.92 98.1479 43.08C97.7959 43.24 97.5185 43.464 97.3159 43.752C97.1132 44.0293 97.0119 44.3493 97.0119 44.712C97.0119 44.9787 97.0599 45.2187 97.1559 45.432C97.2519 45.6347 97.4012 45.816 97.6039 45.976C97.8172 46.1253 98.0892 46.264 98.4199 46.392C98.7612 46.5093 99.1665 46.6213 99.6359 46.728C100.191 46.856 100.687 47.0107 101.124 47.192C101.572 47.3733 101.951 47.592 102.26 47.848C102.58 48.0933 102.82 48.3813 102.98 48.712C103.151 49.0427 103.236 49.4213 103.236 49.848C103.236 50.5093 103.071 51.0907 102.74 51.592C102.409 52.0827 101.945 52.4667 101.348 52.744C100.761 53.0213 100.073 53.16 99.2839 53.16Z" fill="#141715"/>
</svg>
